<svg width="100%" height="100%" viewBox="0 0 680 420" xmlns="http://www.w3.org/2000/svg" role="img" preserveAspectRatio="xMidYMid slice">
<title>Stylised double-cab bakkie with equipment trailer</title>
<desc>Line illustration silhouette of a white double-cab pickup truck with an open load bed, towing an equipment trailer, representing the Novello Stone fleet vehicle, rendered in the brand palette.</desc>
<rect width="680" height="420" fill="#1C1B19"/>
<g stroke="#C9C2B4" stroke-width="0.4" opacity="0.12">
  <line x1="0" y1="100" x2="680" y2="100"/>
  <line x1="0" y1="180" x2="680" y2="180"/>
  <line x1="0" y1="260" x2="680" y2="260"/>
</g>
<line x1="0" y1="300" x2="680" y2="300" stroke="#C9C2B4" stroke-width="0.5" opacity="0.3"/>

<g transform="translate(70,150)">
  <path d="M0 110
           L0 75
           L18 75
           L30 38
           Q34 28 46 28
           L150 28
           Q160 28 164 38
           L172 75
           L210 75
           L210 110
           Z"
        fill="#F2EFE9" stroke="#C9C2B4" stroke-width="1"/>
  <path d="M40 72 L50 38 Q52 32 60 32 L136 32 Q144 32 146 40 L154 72 Z"
        fill="#2A2825" opacity="0.85"/>
  <line x1="96" y1="33" x2="96" y2="72" stroke="#C9C2B4" stroke-width="0.6" opacity="0.5"/>

  <rect x="210" y="50" width="120" height="60" fill="none" stroke="#C9C2B4" stroke-width="1"/>
  <line x1="210" y1="62" x2="330" y2="62" stroke="#C9C2B4" stroke-width="0.6" opacity="0.6"/>
  <line x1="244" y1="62" x2="244" y2="110" stroke="#C9C2B4" stroke-width="0.4" opacity="0.4"/>
  <line x1="278" y1="62" x2="278" y2="110" stroke="#C9C2B4" stroke-width="0.4" opacity="0.4"/>
  <rect x="2" y="88" width="34" height="5" fill="#B5472B" opacity="0.75"/>

  <rect x="-6" y="106" width="346" height="8" fill="#2A2825" stroke="#C9C2B4" stroke-width="0.5"/>

  <circle cx="48" cy="118" r="24" fill="#1C1B19" stroke="#C9C2B4" stroke-width="1.4"/>
  <circle cx="48" cy="118" r="10" fill="#54635F"/>
  <circle cx="268" cy="118" r="24" fill="#1C1B19" stroke="#C9C2B4" stroke-width="1.4"/>
  <circle cx="268" cy="118" r="10" fill="#54635F"/>
</g>

<line x1="386" y1="252" x2="430" y2="252" stroke="#8A7A66" stroke-width="2"/>

<g transform="translate(430,196)">
  <rect x="0" y="34" width="150" height="50" fill="none" stroke="#8A7A66" stroke-width="1"/>
  <line x1="0" y1="59" x2="150" y2="59" stroke="#8A7A66" stroke-width="0.5" opacity="0.5"/>
  <rect x="10" y="40" width="38" height="32" fill="none" stroke="#8A7A66" stroke-width="0.6"/>
  <rect x="56" y="40" width="38" height="32" fill="none" stroke="#8A7A66" stroke-width="0.6"/>
  <rect x="102" y="40" width="38" height="32" fill="none" stroke="#8A7A66" stroke-width="0.6"/>
  <circle cx="38" cy="92" r="14" fill="#1C1B19" stroke="#8A7A66" stroke-width="1.2"/>
  <circle cx="112" cy="92" r="14" fill="#1C1B19" stroke="#8A7A66" stroke-width="1.2"/>
  <line x1="38" y1="92" x2="38" y2="92" stroke="none"/>
</g>

<text x="70" y="350" font-family="IBM Plex Mono, monospace" font-size="12" fill="#8A7A66" letter-spacing="1">FORD RANGER 2.2 DIESEL — WHITE</text>
<text x="70" y="368" font-family="IBM Plex Mono, monospace" font-size="11" fill="#54635F" letter-spacing="0.5">DOUBLE CAB + OPEN LOAD BED + EQUIPMENT TRAILER</text>
</svg>
