<svg width="100%" height="100%" viewBox="0 0 680 510" xmlns="http://www.w3.org/2000/svg" role="img" preserveAspectRatio="xMidYMid slice">
<title>Large format tile laying pattern</title>
<desc>Line illustration of large-format tiles being laid in a staggered pattern with a trowel, rendered in the Novello Stone brand palette.</desc>
<rect width="680" height="510" fill="#1C1B19"/>
<g>
  <rect x="60" y="80" width="160" height="100" fill="#2A2825" stroke="#C9C2B4" stroke-width="0.5"/>
  <rect x="230" y="80" width="160" height="100" fill="#2A2825" stroke="#C9C2B4" stroke-width="0.5"/>
  <rect x="400" y="80" width="160" height="100" fill="#2A2825" stroke="#C9C2B4" stroke-width="0.5"/>
  <rect x="145" y="190" width="160" height="100" fill="#3D4A47" opacity="0.35" stroke="#C9C2B4" stroke-width="0.5"/>
  <rect x="315" y="190" width="160" height="100" fill="#2A2825" stroke="#C9C2B4" stroke-width="0.5"/>
  <rect x="60" y="190" width="75" height="100" fill="#2A2825" stroke="#C9C2B4" stroke-width="0.5"/>
  <rect x="485" y="190" width="75" height="100" fill="#2A2825" stroke="#C9C2B4" stroke-width="0.5"/>
  <rect x="60" y="300" width="160" height="100" fill="#2A2825" stroke="#C9C2B4" stroke-width="0.5"/>
  <rect x="230" y="300" width="160" height="100" fill="#2A2825" stroke="#C9C2B4" stroke-width="0.5"/>
  <rect x="400" y="300" width="160" height="100" fill="#2A2825" stroke="#C9C2B4" stroke-width="0.5"/>
</g>
<g stroke="#B5472B" stroke-width="0.75" opacity="0.55">
  <line x1="220" y1="80" x2="220" y2="180"/>
  <line x1="390" y1="80" x2="390" y2="180"/>
  <line x1="145" y1="190" x2="145" y2="290"/>
  <line x1="305" y1="190" x2="305" y2="290"/>
  <line x1="485" y1="190" x2="485" y2="290"/>
  <line x1="220" y1="300" x2="220" y2="400"/>
  <line x1="390" y1="300" x2="390" y2="400"/>
</g>
<g transform="translate(225,230) rotate(-32)">
  <rect x="-10" y="-90" width="20" height="100" fill="none" stroke="#C9C2B4" stroke-width="1"/>
  <path d="M -34 8 L 34 8 L 28 32 L -28 32 Z" fill="#B5472B" opacity="0.85" stroke="#B5472B" stroke-width="0.5"/>
  <g stroke="#1C1B19" stroke-width="1" opacity="0.6">
    <line x1="-20" y1="14" x2="-14" y2="26"/>
    <line x1="-8" y1="14" x2="-2" y2="26"/>
    <line x1="4" y1="14" x2="10" y2="26"/>
    <line x1="16" y1="14" x2="22" y2="26"/>
  </g>
</g>
<g stroke="#8A7A66" stroke-width="1" fill="none" opacity="0.7">
  <rect x="380" y="380" width="6" height="6"/>
  <rect x="410" y="380" width="6" height="6"/>
  <rect x="380" y="410" width="6" height="6"/>
</g>
<text x="60" y="450" font-family="IBM Plex Mono, monospace" font-size="12" fill="#8A7A66" letter-spacing="1">STAGGERED LARGE-FORMAT LAY</text>
</svg>
